<svg width="147" height="24" viewBox="0 0 147 24" fill="none" xmlns="http://www.w3.org/2000/svg">
<path d="M39.7719 19L36.9119 14.9C36.7919 14.9133 36.6119 14.92 36.3719 14.92H33.2119V19H30.6119V5H36.3719C37.5853 5 38.6386 5.2 39.5319 5.6C40.4386 6 41.1319 6.57333 41.6119 7.32C42.0919 8.06667 42.3319 8.95333 42.3319 9.98C42.3319 11.0333 42.0719 11.94 41.5519 12.7C41.0453 13.46 40.3119 14.0267 39.3519 14.4L42.5719 19H39.7719ZM39.7119 9.98C39.7119 9.08667 39.4186 8.4 38.8319 7.92C38.2453 7.44 37.3853 7.2 36.2519 7.2H33.2119V12.78H36.2519C37.3853 12.78 38.2453 12.54 38.8319 12.06C39.4186 11.5667 39.7119 10.8733 39.7119 9.98ZM51.7808 19.2C50.3542 19.2 49.0675 18.8933 47.9208 18.28C46.7742 17.6533 45.8742 16.7933 45.2208 15.7C44.5675 14.5933 44.2408 13.36 44.2408 12C44.2408 10.64 44.5675 9.41333 45.2208 8.32C45.8742 7.21333 46.7742 6.35333 47.9208 5.74C49.0675 5.11333 50.3542 4.8 51.7808 4.8C53.2075 4.8 54.4942 5.11333 55.6408 5.74C56.7875 6.35333 57.6875 7.20667 58.3408 8.3C58.9942 9.39333 59.3208 10.6267 59.3208 12C59.3208 13.3733 58.9942 14.6067 58.3408 15.7C57.6875 16.7933 56.7875 17.6533 55.6408 18.28C54.4942 18.8933 53.2075 19.2 51.7808 19.2ZM51.7808 16.92C52.7142 16.92 53.5542 16.7133 54.3008 16.3C55.0475 15.8733 55.6342 15.2867 56.0608 14.54C56.4875 13.78 56.7008 12.9333 56.7008 12C56.7008 11.0667 56.4875 10.2267 56.0608 9.48C55.6342 8.72 55.0475 8.13333 54.3008 7.72C53.5542 7.29333 52.7142 7.08 51.7808 7.08C50.8475 7.08 50.0075 7.29333 49.2608 7.72C48.5142 8.13333 47.9275 8.72 47.5008 9.48C47.0742 10.2267 46.8608 11.0667 46.8608 12C46.8608 12.9333 47.0742 13.78 47.5008 14.54C47.9275 15.2867 48.5142 15.8733 49.2608 16.3C50.0075 16.7133 50.8475 16.92 51.7808 16.92ZM70.9615 15.76H63.9615L62.5815 19H59.9015L66.2015 5H68.7615L75.0815 19H72.3615L70.9615 15.76ZM70.1015 13.72L67.4615 7.6L64.8415 13.72H70.1015ZM76.8619 5H82.9819C84.4753 5 85.8019 5.29333 86.9619 5.88C88.1219 6.45333 89.0219 7.27333 89.6619 8.34C90.3019 9.39333 90.6219 10.6133 90.6219 12C90.6219 13.3867 90.3019 14.6133 89.6619 15.68C89.0219 16.7333 88.1219 17.5533 86.9619 18.14C85.8019 18.7133 84.4753 19 82.9819 19H76.8619V5ZM82.8619 16.8C83.8886 16.8 84.7886 16.6067 85.5619 16.22C86.3486 15.82 86.9486 15.26 87.3619 14.54C87.7886 13.8067 88.0019 12.96 88.0019 12C88.0019 11.04 87.7886 10.2 87.3619 9.48C86.9486 8.74667 86.3486 8.18667 85.5619 7.8C84.7886 7.4 83.8886 7.2 82.8619 7.2H79.4619V16.8H82.8619ZM103.885 16.82V19H93.3854V5H103.605V7.18H95.9854V10.82H102.745V12.96H95.9854V16.82H103.885ZM115.944 19L113.084 14.9C112.964 14.9133 112.784 14.92 112.544 14.92H109.384V19H106.784V5H112.544C113.757 5 114.81 5.2 115.704 5.6C116.61 6 117.304 6.57333 117.784 7.32C118.264 8.06667 118.504 8.95333 118.504 9.98C118.504 11.0333 118.244 11.94 117.724 12.7C117.217 13.46 116.484 14.0267 115.524 14.4L118.744 19H115.944ZM115.884 9.98C115.884 9.08667 115.59 8.4 115.004 7.92C114.417 7.44 113.557 7.2 112.424 7.2H109.384V12.78H112.424C113.557 12.78 114.417 12.54 115.004 12.06C115.59 11.5667 115.884 10.8733 115.884 9.98ZM127.257 14.06V19H124.657V14.1L119.157 5H121.937L126.037 11.82L130.177 5H132.737L127.257 14.06Z" fill="black"/>
<path d="M11.356 10.5091L3.61652 18.5815C3.08158 19.1395 2.21658 19.1395 1.68733 18.5815L0.401203 17.2401C-0.133734 16.6821 -0.133734 15.7799 0.401203 15.2279L5.88716 9.50594L0.401203 3.78398C-0.133734 3.22602 -0.133734 2.3238 0.401203 1.77179L1.68164 0.418465C2.21658 -0.139486 3.08158 -0.139486 3.61083 0.418465L11.3504 8.49094C11.891 9.04889 11.891 9.95111 11.356 10.5091ZM22.2824 8.49094L14.5429 0.418465C14.008 -0.139486 13.143 -0.139486 12.6137 0.418465L11.3276 1.75992C10.7927 2.31787 10.7927 3.22009 11.3276 3.7721L16.8079 9.5L11.3219 15.222C10.787 15.7799 10.787 16.6821 11.3219 17.2341L12.608 18.5815C13.143 19.1395 14.008 19.1395 14.5372 18.5815L22.2767 10.5091C22.8174 9.95111 22.8174 9.04889 22.2824 8.49094Z" fill="#FF4133"/>
<ellipse cx="138.976" cy="17" rx="3.02439" ry="4" fill="#FF4133"/>
</svg>
